<?xml version="1.0" standalone="no"?>
<!DOCTYPE svg PUBLIC "-//W3C//DTD SVG 20010904//EN"
 "http://www.w3.org/TR/2001/REC-SVG-20010904/DTD/svg10.dtd">
<svg version="1.0" xmlns="http://www.w3.org/2000/svg"
 width="1024.000000pt" height="1024.000000pt" viewBox="0 0 1024.000000 1024.000000"
 preserveAspectRatio="xMidYMid meet">
<metadata>
Created by potrace 1.14, written by Peter Selinger 2001-2017
</metadata>
<g transform="translate(0.000000,1024.000000) scale(0.100000,-0.100000)"
fill="#000000" stroke="none">
<path d="M0 5120 l0 -5120 5120 0 5120 0 0 5120 0 5120 -5120 0 -5120 0 0
-5120z m8527 3659 c105 -38 195 -69 200 -69 4 0 21 -11 37 -24 23 -18 31 -34
35 -72 l6 -49 125 -5 126 -5 99 -71 c133 -95 443 -360 472 -403 19 -28 23 -47
23 -112 0 -84 -15 -114 -26 -52 -23 135 -30 146 -172 268 -57 50 -136 119
-176 154 -39 35 -85 74 -102 88 -39 29 -133 49 -279 58 -119 7 -194 29 -570
166 -191 69 -319 109 -350 109 -38 0 -431 -106 -670 -180 -126 -40 -255 -79
-285 -88 -67 -19 -854 -285 -1110 -375 -392 -137 -368 -126 -495 -223 -64 -49
-138 -104 -163 -122 -26 -19 -53 -44 -59 -57 -7 -13 -31 -88 -54 -167 -22 -79
-49 -168 -59 -198 -10 -31 -42 -143 -70 -250 -28 -107 -55 -199 -59 -203 -10
-10 -47 74 -62 141 -11 45 -10 51 9 70 25 25 52 111 52 167 0 22 -9 73 -20
113 -11 39 -20 91 -20 115 0 37 83 320 149 510 30 86 81 175 112 198 37 26
131 42 197 34 31 -4 81 -21 118 -41 35 -19 71 -34 79 -34 17 0 60 35 114 92
25 26 64 49 126 75 139 56 675 233 707 233 54 0 138 -56 138 -93 0 -11 5 -17
13 -14 91 37 654 217 947 302 118 35 228 68 243 74 48 19 170 14 232 -10 41
-15 59 -18 69 -10 29 24 92 40 136 35 25 -3 131 -36 237 -75z m-7311 -125 l47
-36 22 28 22 27 104 -6 c82 -5 107 -10 116 -24 14 -19 9 -49 -14 -74 -12 -15
-10 -17 19 -22 18 -3 187 -38 376 -76 189 -39 345 -71 347 -71 3 0 5 5 5 11 0
6 9 24 21 40 18 26 26 29 75 29 46 0 319 -34 440 -55 49 -8 71 -77 39 -121
-14 -21 -13 -22 63 -33 42 -7 93 -17 112 -22 19 -5 89 -14 155 -19 131 -10
247 -33 282 -56 18 -11 210 -64 234 -64 3 0 4 11 2 25 -8 39 39 109 90 134 97
47 247 14 333 -74 37 -37 43 -49 53 -116 7 -41 24 -100 39 -132 21 -46 23 -60
13 -66 -14 -9 -17 -9 -196 37 -195 50 -412 97 -905 197 -256 52 -573 117 -705
145 -132 28 -314 66 -405 85 -91 19 -302 68 -470 109 -430 105 -417 103 -471
82 -38 -15 -52 -30 -103 -107 -91 -140 -172 -310 -226 -474 -45 -138 -59 -198
-75 -327 -3 -26 -10 -50 -16 -53 -5 -4 -9 -15 -9 -26 0 -10 -7 -19 -15 -19
-20 0 -35 32 -28 61 16 72 120 396 153 478 40 101 272 584 291 607 7 9 34 14
74 14 57 0 68 -3 111 -36z m7718 26 c34 -13 36 -55 4 -64 -30 -8 -92 -8 -112
0 -23 9 -20 40 6 58 26 18 65 20 102 6z m-1491 -441 c-9 -9 -325 -122 -693
-248 -627 -215 -762 -269 -849 -335 -28 -21 -46 -26 -90 -26 -58 0 -368 26
-456 38 l-50 7 104 82 c58 45 131 96 164 114 56 29 1226 424 1234 416 7 -8
-242 -101 -467 -177 -63 -21 -153 -52 -200 -69 -47 -18 -168 -61 -270 -97
-102 -36 -221 -83 -265 -104 -94 -46 -155 -94 -138 -111 13 -13 185 -44 298
-53 l80 -7 55 42 c101 77 154 98 945 364 588 198 575 193 575 219 1 16 4 13
16 -13 8 -19 11 -38 7 -42z m1104 -202 c81 -24 133 -50 133 -65 0 -16 -60 -42
-98 -42 -50 0 -215 43 -248 65 -29 19 -31 49 -4 68 25 17 104 8 217 -26z m351
-123 c32 -9 90 -32 130 -50 l74 -34 -26 -31 c-39 -46 -35 -84 16 -142 36 -43
45 -48 71 -43 16 3 47 21 68 40 43 39 67 39 100 -3 21 -25 21 -34 16 -241 -4
-128 -14 -274 -26 -360 -11 -80 -29 -217 -40 -305 -59 -469 -74 -565 -92 -620
-36 -109 -327 -576 -496 -797 -154 -200 -191 -252 -272 -381 -40 -66 -99 -151
-131 -191 -150 -189 -407 -538 -510 -691 -62 -93 -138 -204 -169 -245 -58 -77
-86 -118 -236 -350 -48 -74 -151 -220 -229 -325 -170 -227 -461 -620 -536
-725 -30 -41 -84 -115 -121 -165 -36 -49 -131 -184 -210 -300 -80 -115 -178
-255 -218 -310 -40 -55 -97 -136 -126 -180 -29 -44 -62 -88 -73 -98 -10 -10
-52 -25 -93 -33 -123 -27 -515 -7 -919 46 -213 28 -254 39 -258 69 -4 24 -4
24 68 17 39 -3 128 -15 198 -26 345 -53 438 -62 589 -58 144 3 150 4 215 36
91 45 155 127 453 578 162 245 554 774 747 1006 118 142 333 442 573 798 76
113 157 232 180 265 117 164 609 943 747 1180 150 259 497 916 536 1015 49
125 80 252 122 505 24 141 36 300 46 580 l7 180 -27 32 c-36 42 -162 105 -224
111 -62 5 -325 -59 -747 -183 -44 -13 -161 -45 -260 -70 -99 -26 -297 -78
-440 -117 -143 -38 -294 -79 -335 -90 -113 -30 -282 -68 -305 -68 -12 0 -41
-13 -66 -29 -55 -36 -190 -175 -214 -221 -10 -19 -64 -174 -121 -345 -118
-357 -192 -572 -205 -597 -8 -15 -24 -18 -92 -18 -112 0 -114 3 -89 81 61 193
330 892 367 954 33 56 261 278 312 303 46 24 226 75 533 152 258 65 690 180
970 260 118 33 249 70 290 81 41 12 85 27 97 35 12 8 30 14 40 14 10 0 65 27
123 60 58 33 118 59 133 60 16 0 54 -7 85 -16z m-576 -23 c130 -44 153 -61 96
-73 -13 -3 -138 -38 -278 -77 -339 -96 -394 -111 -965 -256 -334 -86 -511
-136 -555 -157 -50 -24 -95 -60 -193 -157 -70 -68 -140 -145 -157 -170 -36
-57 -370 -931 -370 -970 0 -25 -64 -37 -172 -33 -33 2 -38 5 -38 27 0 39 179
567 278 821 49 126 100 267 112 312 23 87 60 147 121 200 72 63 148 88 507
167 415 92 1079 268 1392 369 98 32 120 32 222 -3z m649 -503 c7 -24 12 -110
13 -193 0 -138 -2 -156 -26 -225 -15 -41 -50 -158 -78 -259 -100 -358 -126
-419 -285 -661 -49 -74 -173 -274 -276 -444 -117 -195 -247 -392 -350 -535
-90 -124 -195 -271 -233 -326 -38 -55 -95 -131 -126 -170 -31 -38 -98 -126
-150 -195 -112 -149 -335 -429 -475 -595 -56 -66 -180 -219 -275 -340 -149
-188 -268 -333 -484 -588 -109 -129 -357 -430 -510 -620 -92 -114 -184 -218
-204 -232 -55 -37 -119 -32 -432 34 -330 71 -353 78 -448 140 -139 92 -147
116 -30 95 40 -7 102 -24 138 -39 106 -42 647 -172 674 -162 8 3 34 34 57 69
49 71 204 268 294 373 33 39 128 153 210 254 83 101 206 252 275 336 224 273
415 506 435 533 11 15 89 113 175 217 220 269 382 472 744 935 174 223 336
428 359 455 24 28 52 64 63 80 45 65 309 583 301 591 -2 3 -74 -102 -158 -233
-86 -133 -192 -282 -239 -338 -47 -55 -231 -282 -409 -505 -441 -553 -688
-858 -1001 -1235 -146 -176 -299 -360 -339 -410 -76 -93 -150 -180 -455 -539
-304 -357 -347 -405 -368 -411 -11 -4 -36 -4 -56 0 -97 17 -555 117 -617 135
-38 11 -94 20 -123 20 -64 0 -100 17 -139 67 -46 59 -289 422 -397 593 -194
306 -220 348 -340 532 -637 985 -1087 1703 -1278 2038 -181 317 -281 532 -375
805 -38 113 -55 234 -32 236 74 7 241 -5 684 -51 318 -32 630 -58 770 -62 82
-3 90 -1 88 15 -1 17 4 18 40 12 23 -3 72 -9 108 -11 52 -4 71 -10 86 -27 28
-32 243 -374 258 -411 7 -17 16 -52 19 -78 9 -59 -4 -68 -106 -68 -104 -1
-168 -25 -193 -72 -11 -20 -17 -39 -14 -43 4 -3 48 1 100 10 127 20 126 21
200 -155 17 -41 88 -190 156 -330 69 -140 140 -289 158 -330 40 -92 192 -420
274 -593 34 -70 61 -129 61 -131 0 -2 24 -55 54 -117 29 -63 81 -177 116 -254
97 -218 146 -310 180 -338 39 -33 155 -71 178 -58 41 22 92 89 337 436 50 72
132 186 181 255 50 69 157 220 238 337 80 116 154 214 162 217 33 13 -3 -43
-316 -489 -271 -386 -400 -579 -403 -606 -2 -23 11 -34 28 -21 10 7 118 153
165 222 13 19 88 123 165 230 137 189 320 451 588 844 148 218 267 388 447
636 182 251 184 256 151 289 -26 26 -41 27 -41 1 0 -24 -6 -24 -84 -6 -34 8
-122 27 -196 41 -148 29 -197 46 -206 70 -10 24 4 62 31 87 25 24 141 266 273
568 41 96 82 185 89 196 10 16 41 29 116 48 56 14 194 51 307 81 229 62 333
90 760 200 162 42 349 92 415 110 238 67 370 96 405 92 19 -3 44 -1 55 3 11 5
32 9 47 9 24 1 29 -5 39 -41z m-7249 13 c259 -49 1166 -170 1418 -190 307 -24
569 -63 690 -104 87 -29 157 -99 235 -232 32 -55 88 -149 124 -210 37 -60 88
-157 115 -214 70 -151 186 -457 186 -491 0 -30 0 -30 -57 -30 -32 0 -68 6 -80
13 -15 8 -68 102 -157 278 -159 317 -221 417 -330 525 -115 115 -219 180 -332
209 -56 14 -868 131 -1424 205 -124 17 -258 37 -298 45 l-74 15 -95 -32 c-118
-39 -169 -76 -205 -147 -35 -68 -36 -132 -8 -272 37 -180 194 -742 268 -959
17 -47 113 -254 214 -460 102 -206 211 -433 243 -505 108 -245 179 -377 310
-580 36 -55 113 -178 173 -274 149 -242 333 -518 422 -634 190 -249 198 -267
116 -267 -40 0 -48 4 -79 43 -39 47 -231 338 -383 580 -54 87 -164 258 -243
380 -172 266 -240 385 -399 702 -66 132 -166 323 -222 425 -56 102 -118 221
-138 265 -19 44 -79 166 -133 270 -109 214 -160 352 -255 690 -69 243 -151
570 -160 639 -6 39 -2 46 66 136 96 126 127 159 175 181 54 25 183 25 317 0z
m55 -237 c2 -6 -22 -21 -54 -32 -85 -31 -138 -74 -168 -137 -36 -73 -40 -118
-21 -213 22 -109 167 -617 212 -744 95 -269 109 -317 95 -330 -32 -32 -96 123
-210 517 -105 362 -137 493 -158 638 -16 105 -16 121 -3 144 25 44 103 102
186 138 78 35 114 40 121 19z m3178 -324 c19 -37 19 -38 -6 -80 -20 -32 -22
-33 -35 -15 -24 33 -12 125 16 125 5 0 16 -13 25 -30z m-2440 -140 c88 -5 275
-17 415 -25 140 -8 358 -20 484 -25 126 -5 232 -12 234 -15 9 -8 -265 -6 -454
5 -98 5 -291 14 -429 20 -328 13 -729 33 -734 36 -1 1 0 8 4 14 8 13 150 9
480 -10z m-359 -862 c31 -57 74 -128 94 -158 20 -30 69 -110 109 -178 40 -68
159 -254 265 -415 177 -268 278 -422 489 -745 77 -119 91 -146 61 -121 -60 50
-754 1120 -939 1449 -65 114 -145 262 -145 267 0 13 15 -10 66 -99z m1080
-1693 c13 -22 28 -48 34 -57 24 -40 0 -14 -40 43 -24 34 -37 60 -30 57 7 -2
23 -22 36 -43z m4209 -958 c-16 -12 -59 -51 -94 -87 -35 -36 -57 -56 -50 -45
41 61 69 91 114 121 55 38 77 46 30 11z m-4413 -158 c16 -12 45 -46 66 -77 58
-85 59 -91 11 -42 -24 25 -71 70 -104 99 -53 48 -57 53 -31 47 17 -4 43 -16
58 -27z m4837 -292 c106 -64 141 -126 89 -159 -61 -37 -224 -103 -428 -171
-124 -41 -237 -80 -252 -87 -22 -10 -33 -10 -58 0 -49 20 -70 55 -70 115 0 44
6 60 39 106 47 65 60 72 277 139 88 27 189 60 225 74 76 30 104 28 178 -17z
m-4382 -370 c49 -74 223 -366 223 -374 0 -15 -51 -49 -192 -129 -112 -63 -138
-74 -178 -74 -45 0 -403 50 -629 88 -117 19 -137 33 -111 77 24 39 302 316
328 326 63 24 465 117 512 118 17 1 31 -9 47 -32z m1413 -1171 c47 -8 123 -17
170 -21 47 -3 179 -15 293 -26 122 -12 257 -19 325 -17 104 3 123 6 173 31 31
15 61 27 68 27 17 0 51 -61 51 -91 0 -23 -17 -37 -119 -103 l-119 -76 -213 30
c-118 16 -324 45 -459 64 -135 19 -272 38 -305 42 -33 3 -70 10 -82 15 -34 13
-30 60 8 104 27 31 37 35 78 35 25 0 84 -6 131 -14z"/>
</g>
</svg>
